<svg width="128" height="128" viewBox="0 0 128 128" fill="none" xmlns="http://www.w3.org/2000/svg">
<path fill-rule="evenodd" clip-rule="evenodd" d="M57.6981 56.0015C54.8657 56.0015 52.5695 58.2977 52.5695 61.1302C52.5695 62.5266 53.139 63.8628 54.1464 64.8299L55.1797 65.8219C57.0221 67.5906 59.2637 68.698 61.6059 69.1441C61.1496 72.7376 59.2654 75.5964 56.6175 77.2472C53.581 79.1403 49.267 79.6082 44.3945 77.33C43.2509 76.7953 41.8904 77.2889 41.3557 78.4325C40.821 79.5761 41.3146 80.9366 42.4582 81.4713C46.0755 83.1626 49.6481 83.7148 52.8968 83.298L54.2497 91.4157C54.8008 94.7222 57.6616 97.1457 61.0138 97.1457H66.9831C70.3352 97.1457 73.1961 94.7222 73.7472 91.4157L75.1001 83.298C78.3488 83.7148 81.9213 83.1626 85.5387 81.4713C86.6823 80.9366 87.1759 79.5761 86.6412 78.4325C86.1065 77.2889 84.7459 76.7953 83.6024 77.33C78.7299 79.6082 74.4159 79.1403 71.3793 77.2472C68.7315 75.5964 66.8473 72.7376 66.391 69.1441C68.7332 68.698 70.9747 67.5906 72.8172 65.8219L73.8505 64.8299C74.8579 63.8628 75.4274 62.5266 75.4274 61.1302C75.4274 58.2977 73.1312 56.0015 70.2988 56.0015H57.6981ZM70.6742 82.0457C70.0829 81.7764 69.5109 81.4696 68.9608 81.1266C66.9154 79.8514 65.2285 78.1112 63.9984 76.0393C62.7683 78.1112 61.0815 79.8514 59.0361 81.1266C58.486 81.4696 57.914 81.7764 57.3227 82.0457L58.7591 90.6641C58.9428 91.7663 59.8964 92.5741 61.0138 92.5741H66.9831C68.1005 92.5741 69.0541 91.7663 69.2378 90.6641L70.6742 82.0457Z" fill="black"/>
<path d="M51.4266 51.43C53.3202 51.43 54.8553 49.8949 54.8553 48.0013C54.8553 46.1077 53.3202 44.5726 51.4266 44.5726C49.533 44.5726 47.9979 46.1077 47.9979 48.0013C47.9979 49.8949 49.533 51.43 51.4266 51.43Z" fill="black"/>
<path d="M79.999 48.0013C79.999 49.8949 78.4639 51.43 76.5703 51.43C74.6767 51.43 73.1416 49.8949 73.1416 48.0013C73.1416 46.1077 74.6767 44.5726 76.5703 44.5726C78.4639 44.5726 79.999 46.1077 79.999 48.0013Z" fill="black"/>
<path fill-rule="evenodd" clip-rule="evenodd" d="M27.4714 44.9063C27.7532 38.8793 29.3325 33.1961 31.9254 28.1785C29.8437 22.9893 29.1198 16.6707 30.229 10.8078C30.5515 9.10316 32.008 7.88853 33.7057 8.246C36.9585 8.93097 41.5031 11.0109 44.3979 14.0397C50.0484 10.2197 56.7641 8 63.9984 8C71.2328 8 77.9485 10.2197 83.599 14.0397C86.4938 11.0109 91.0383 8.93097 94.2912 8.246C95.9889 7.88853 97.4454 9.10316 97.7679 10.8078C98.877 16.6707 98.1532 22.9893 96.0715 28.1785C98.6847 33.2354 100.268 38.9683 100.532 45.0478C101.402 45.1952 102.273 45.3775 103.141 45.5956C121.41 50.1868 131.892 68.8645 126.65 87.2121C121.423 105.508 102.497 116.699 84.2866 112.123C83.4173 111.905 82.565 111.654 81.7306 111.373C77.0394 116.665 70.8753 120.004 63.9984 120.004C57.2139 120.004 51.1215 116.754 46.4547 111.584C31.3445 116.427 13.9075 109.768 5.14982 95.1515C-4.7791 78.5799 0.0334625 57.7009 16.277 48.6639C19.8245 46.6902 23.6149 45.4555 27.4714 44.9063ZM63.9984 12.5716C46.4615 12.5716 31.9974 27.7811 31.9974 46.8584L31.9975 46.9512L32.0027 49.068L29.8926 49.2355C25.9565 49.5479 22.0808 50.6664 18.4996 52.6588C4.72914 60.3199 0.338722 78.2268 9.07138 92.8019C17.0597 106.135 33.1165 111.765 46.3695 106.774L47.9092 106.194L48.9478 107.47C53.0739 112.538 58.367 115.432 63.9984 115.432C69.7094 115.432 75.0742 112.455 79.2244 107.252L80.2774 105.932L81.8487 106.551C82.9887 106.999 84.1737 107.381 85.4008 107.689C101.144 111.646 117.684 101.954 122.254 85.9563C126.81 70.0104 117.71 53.9708 102.027 50.0294C100.699 49.6958 99.3673 49.4592 98.0383 49.3151L95.9894 49.0928L95.9991 47.0319L95.9995 46.8584C95.9995 27.7811 81.5354 12.5716 63.9984 12.5716Z" fill="black"/>
</svg>
